<svg width="302" height="322" viewBox="0 0 302 322" fill="none" xmlns="http://www.w3.org/2000/svg">
<g filter="url(#filter0_d_4_39)">
<mask id="path-1-inside-1_4_39" fill="white">
<path fill-rule="evenodd" clip-rule="evenodd" d="M104.003 30H80C63.4315 30 50 43.4315 50 60V222C50 238.569 63.4315 252 80 252H222C238.569 252 252 238.569 252 222V60C252 43.4315 238.569 30 222 30H198.997C198.729 56.0032 177.567 77 151.5 77C125.433 77 104.271 56.0032 104.003 30Z"/>
</mask>
<path fill-rule="evenodd" clip-rule="evenodd" d="M104.003 30H80C63.4315 30 50 43.4315 50 60V222C50 238.569 63.4315 252 80 252H222C238.569 252 252 238.569 252 222V60C252 43.4315 238.569 30 222 30H198.997C198.729 56.0032 177.567 77 151.5 77C125.433 77 104.271 56.0032 104.003 30Z" fill="#F1F6F6"/>
<path d="M104.003 30L105.003 29.9897L104.992 29H104.003V30ZM198.997 30V29H198.008L197.997 29.9897L198.997 30ZM80 31H104.003V29H80V31ZM51 60C51 43.9837 63.9837 31 80 31V29C62.8792 29 49 42.8792 49 60H51ZM51 222V60H49V222H51ZM80 251C63.9837 251 51 238.016 51 222H49C49 239.121 62.8792 253 80 253V251ZM222 251H80V253H222V251ZM251 222C251 238.016 238.016 251 222 251V253C239.121 253 253 239.121 253 222H251ZM251 60V222H253V60H251ZM222 31C238.016 31 251 43.9837 251 60H253C253 42.8792 239.121 29 222 29V31ZM198.997 31H222V29H198.997V31ZM197.997 29.9897C197.735 55.4452 177.018 76 151.5 76V78C178.115 78 199.724 56.5612 199.997 30.0103L197.997 29.9897ZM151.5 76C125.982 76 105.265 55.4452 105.003 29.9897L103.003 30.0103C103.276 56.5612 124.885 78 151.5 78V76Z" fill="#F9FEFE" mask="url(#path-1-inside-1_4_39)"/>
</g>
<defs>
<filter id="filter0_d_4_39" x="0" y="0" width="302" height="322" filterUnits="userSpaceOnUse" color-interpolation-filters="sRGB">
<feFlood flood-opacity="0" result="BackgroundImageFix"/>
<feColorMatrix in="SourceAlpha" type="matrix" values="0 0 0 0 0 0 0 0 0 0 0 0 0 0 0 0 0 0 127 0" result="hardAlpha"/>
<feOffset dy="20"/>
<feGaussianBlur stdDeviation="25"/>
<feComposite in2="hardAlpha" operator="out"/>
<feColorMatrix type="matrix" values="0 0 0 0 0.369444 0 0 0 0 0.466667 0 0 0 0 0.381597 0 0 0 0.1 0"/>
<feBlend mode="normal" in2="BackgroundImageFix" result="effect1_dropShadow_4_39"/>
<feBlend mode="normal" in="SourceGraphic" in2="effect1_dropShadow_4_39" result="shape"/>
</filter>
</defs>
</svg>
